<svg width="104.000000" height="30.000000" viewBox="0 0 104 30" fill="none" xmlns="http://www.w3.org/2000/svg" xmlns:xlink="http://www.w3.org/1999/xlink">
	<desc>
			Created with Pixso.
	</desc>
	<defs/>
	<path id="Kreed" d="M53.016 22.076L50.28 22.076L43.032 14.012L43.032 22.076L40.8 22.076L40.8 5.276L43.032 5.276L43.032 12.86L50.04 5.276L52.776 5.276L45.36 13.436L53.016 22.076ZM56.8751 12.092C57.5631 10.604 58.8111 9.86 60.6191 9.86L60.6191 12.044C59.5951 11.996 58.7151 12.268 57.9791 12.86C57.2431 13.452 56.8751 14.404 56.8751 15.716L56.8751 22.076L54.7871 22.076L54.7871 10.076L56.8751 10.076L56.8751 12.092ZM63.4699 17.036C63.6779 18.108 64.1659 18.94 64.9339 19.532C65.7179 20.124 66.6779 20.42 67.8139 20.42C69.3979 20.42 70.5499 19.836 71.2699 18.668L73.0459 19.676C71.8779 21.484 70.1179 22.388 67.7659 22.388C65.8619 22.388 64.3099 21.796 63.1099 20.612C61.9259 19.412 61.3339 17.9 61.3339 16.076C61.3339 14.268 61.9179 12.764 63.0859 11.564C64.2539 10.364 65.7659 9.764 67.6219 9.764C69.3819 9.764 70.8139 10.388 71.9179 11.636C73.0379 12.868 73.5979 14.356 73.5979 16.1C73.5979 16.404 73.5739 16.716 73.5259 17.036L63.4699 17.036ZM67.6219 11.732C66.5019 11.732 65.5739 12.052 64.8379 12.692C64.1019 13.316 63.6459 14.156 63.4699 15.212L71.4859 15.212C71.3099 14.076 70.8619 13.212 70.1419 12.62C69.4219 12.028 68.5819 11.732 67.6219 11.732ZM77.4386 17.036C77.6466 18.108 78.1346 18.94 78.9026 19.532C79.6866 20.124 80.6466 20.42 81.7826 20.42C83.3666 20.42 84.5186 19.836 85.2386 18.668L87.0146 19.676C85.8466 21.484 84.0866 22.388 81.7346 22.388C79.8306 22.388 78.2786 21.796 77.0786 20.612C75.8946 19.412 75.3026 17.9 75.3026 16.076C75.3026 14.268 75.8866 12.764 77.0546 11.564C78.2226 10.364 79.7346 9.764 81.5906 9.764C83.3506 9.764 84.7826 10.388 85.8866 11.636C87.0066 12.868 87.5666 14.356 87.5666 16.1C87.5666 16.404 87.5426 16.716 87.4946 17.036L77.4386 17.036ZM81.5906 11.732C80.4706 11.732 79.5426 12.052 78.8066 12.692C78.0706 13.316 77.6146 14.156 77.4386 15.212L85.4546 15.212C85.2786 14.076 84.8306 13.212 84.1106 12.62C83.3906 12.028 82.5506 11.732 81.5906 11.732ZM99.8794 5.276L101.967 5.276L101.967 22.076L99.8794 22.076L99.8794 20.012C98.8394 21.596 97.3274 22.388 95.3434 22.388C93.6634 22.388 92.2314 21.78 91.0474 20.564C89.8634 19.332 89.2714 17.836 89.2714 16.076C89.2714 14.316 89.8634 12.828 91.0474 11.612C92.2314 10.38 93.6634 9.764 95.3434 9.764C97.3274 9.764 98.8394 10.556 99.8794 12.14L99.8794 5.276ZM95.6074 20.372C96.8234 20.372 97.8394 19.964 98.6554 19.148C99.4714 18.316 99.8794 17.292 99.8794 16.076C99.8794 14.86 99.4714 13.844 98.6554 13.028C97.8394 12.196 96.8234 11.78 95.6074 11.78C94.4074 11.78 93.3994 12.196 92.5834 13.028C91.7674 13.844 91.3594 14.86 91.3594 16.076C91.3594 17.292 91.7674 18.316 92.5834 19.148C93.3994 19.964 94.4074 20.372 95.6074 20.372Z" fill="#FFFFFF" fill-opacity="1.000000" fill-rule="evenodd"/>
	<rect id="Rectangle 63" rx="6.000000" width="30.000000" height="30.000000" fill="#FFFFFF" fill-opacity="1.000000"/>
	<path id="K." d="M8.70947 9.22583L8.70947 20.6782C8.70947 21.2305 9.15723 21.6782 9.70947 21.6782L10.7612 21.6782C11.3135 21.6782 11.7612 21.2305 11.7612 20.6782L11.7612 9.22583C11.7612 8.67358 11.3135 8.22583 10.7612 8.22583L9.70947 8.22583C9.15723 8.22583 8.70947 8.67358 8.70947 9.22583ZM14.7139 8.90771L12.7393 14.7905C12.6665 15.0068 12.6699 15.2417 12.749 15.4558L14.8091 21.0251C14.9546 21.4175 15.3286 21.6782 15.7471 21.6782L16.6104 21.6782C17.3042 21.6782 17.7871 20.9888 17.5503 20.3367L15.7754 15.4519C15.6987 15.2402 15.6953 15.0085 15.7666 14.7949L17.5137 9.54126C17.729 8.89404 17.2471 8.22583 16.5645 8.22583L15.6616 8.22583C15.2319 8.22583 14.8506 8.50024 14.7139 8.90771ZM19.8555 19.0454C19.293 19.3271 19.0112 19.7563 19.0112 20.333C19.0112 20.5635 19.0762 20.7876 19.2061 21.0056C19.4946 21.5181 19.9707 21.7742 20.6348 21.7742C20.8945 21.7742 21.147 21.7166 21.3921 21.6013C21.9692 21.345 22.2578 20.9221 22.2578 20.333C22.2578 20.0767 22.1929 19.8396 22.063 19.6218C21.7603 19.1221 21.2837 18.8723 20.6348 18.8723C20.3604 18.8723 20.1006 18.9299 19.8555 19.0454Z" fill="#1E255E" fill-opacity="1.000000" fill-rule="evenodd"/>
</svg>
